Coordinates
version=1
nRows=10
nColumns=23
inDegrees=yes

Units are S.I. units (second, meters, Newtons, ...)
If the header above contains a line with 'inDegrees', this indicates whether rotational values are in degrees (yes) or radians (no).

endheader
time	pelvis_tilt	pelvis_list	pelvis_rotation	pelvis_tx	pelvis_ty	pelvis_tz	hip_flexion_r	hip_adduction_r	hip_rotation_r	knee_angle_r	knee_angle_r_beta	ankle_angle_r	subtalar_angle_r	mtp_angle_r	hip_flexion_l	hip_adduction_l	hip_rotation_l	knee_angle_l	knee_angle_l_beta	ankle_angle_l	subtalar_angle_l	mtp_angle_l
      7.50000000	    -12.38791056	     -2.79969562	      4.53597625	      2.34119197	      0.94525026	      1.05053307	     50.83456241	     -0.04070280	     -5.30224720	     68.86413037	      1.20190581	     -3.57868600	    -17.44886894	      0.00000000	    -15.33434090	     -2.03108873	     -8.25390223	     12.13383445	      0.21177536	    -11.69273255	      8.53982599	      0.00000000
      7.50666667	    -12.85166914	     -2.26442091	      4.14593022	      2.34234623	      0.94731505	      1.05105760	     50.79903042	     -0.08160966	     -4.74956415	     64.02708668	      1.11748347	     -3.05992336	    -16.69379405	      0.00000000	    -15.59124930	     -1.61881928	     -9.18510421	     13.66333928	      0.23847026	    -11.94576642	      7.55274574	      0.00000000
      7.51333333	    -12.99808493	     -2.06168019	      3.83781532	      2.34333677	      0.94922346	      1.05165723	     50.20010614	      0.11117768	     -4.55136527	     58.87353566	      1.02753704	     -2.75613761	    -16.15673863	      0.00000000	    -15.71384883	     -1.85277232	    -10.92801669	     16.26447766	      0.28386869	    -11.49598982	      7.41453557	      0.00000000
      7.52000000	    -13.14899250	     -1.53467046	      3.47708506	      2.34413407	      0.95060604	      1.05235629	     49.54803949	      0.03996985	     -4.17469075	     53.77138946	      0.93848779	     -2.43724653	    -14.87629588	      0.00000000	    -15.97973970	     -1.57412211	    -11.62842898	     18.61885186	      0.32496027	    -11.18868155	      5.98603268	      0.00000000
      7.52666667	    -13.17354801	     -0.99489799	      3.17654471	      2.34478569	      0.95163713	      1.05307060	     48.63387284	     -0.09944394	     -3.91941882	     48.60159160	      0.84825780	     -2.10232740	    -13.33287374	      0.00000000	    -16.21849331	     -1.34630368	    -12.19010213	     21.33191548	      0.37231216	    -10.76480357	      4.60718519	      0.00000000
      7.53333333	    -13.07889325	     -0.43850855	      2.90185014	      2.34536493	      0.95231616	      1.05384866	     47.48079170	     -0.27006610	     -3.75486287	     43.42317640	      0.75787740	     -1.81458548	    -11.43976976	      0.00000000	    -16.48522885	     -1.10832341	    -12.47473993	     24.25352539	      0.42330387	    -10.32057509	      2.98980958	      0.00000000
      7.54000000	    -12.89228704	      0.12988599	      2.62228887	      2.34587589	      0.95259196	      1.05466901	     46.14294812	     -0.41744997	     -3.57950361	     38.30859478	      0.66861111	     -1.63040078	     -9.39803747	      0.00000000	    -16.75139548	     -0.83248773	    -12.50102460	     27.36373895	      0.47758734	     -9.93000851	      1.00579774	      0.00000000
      7.54666667	    -12.56533421	      0.66189085	      2.44677468	      2.34642499	      0.95258379	      1.05537978	     44.56747074	     -0.60951481	     -3.55564191	     33.32150601	      0.58156999	     -1.53094076	     -7.21125671	      0.00000000	    -17.06305408	     -0.57430679	    -12.15657718	     30.62476554	      0.53450299	     -9.61799930	     -1.16311577	      0.00000000
      7.55333333	    -12.12583874	      1.19427066	      2.28119200	      2.34690282	      0.95221047	      1.05605702	     42.85921135	     -0.78228434	     -3.50087845	     28.62658849	      0.49962822	     -1.54840597	     -5.06001118	      0.00000000	    -17.36578195	     -0.27425429	    -11.62580911	     34.08560796	      0.59490609	     -9.38293719	     -3.54647569	      0.00000000
      7.56000000	    -11.54652090	      1.67756308	      2.15476398	      2.34749702	      0.95157493	      1.05659921	     40.99271045	     -0.93648991	     -3.48290242	     24.30128802	      0.42413749	     -1.58754640	     -3.09986368	      0.00000000	    -17.73607052	      0.04958593	    -10.83711939	     37.62339773	      0.65665217	     -9.31552814	     -6.07160574	      0.00000000
